# xmcd
#
# Track frame offsets:
#	150
#	16306
#	32555
#	49545
#	67077
#	85551
#	101733
#	117033
#	142856
#	157602
#	175074
#	196299
#	210840
#	221621
#	236726
#	250199
#	269856
#	285030
#	304069
#	327865
#	342684
#
# Disc length: 4797 seconds
#
# Revision: 0
# Processed by: cddbd v1.5.2PL0 Copyright (c) Steve Scherf et al.
# Submitted via: EasyCDDAExtractor 10.0.1.1
#
DISCID=1d12bb15
DTITLE=Various Artist - Ищу тебя любовь моя
DYEAR=2006
DGENRE=Ballad
TTITLE0=Стас Михайлов - Знай об этом
TTITLE1=Ринат Сафин и Андрей Бандера - Ручеек
TTITLE2=Любовь Успенская и Штар - Гитара
TTITLE3=Александр Шапиро - Случайная встреча
TTITLE4=Виктор Королев - Я любил тебя
TTITLE5=Владимир Харламов - Журавли улетели на юг
TTITLE6=Михаил Шуфутинский и Катя Лель - Шарада ночь
TTITLE7=Анатолий Полотно - Не зови
TTITLE8=Александр Кузнецов - Беленькая
TTITLE9=Владимир Черняков - Только для Вас
TTITLE10=Олег Алябин - Убийственно красивая
TTITLE11=Виктор Петлюра - Снилась ты
TTITLE12=Сергей Трофимов - Никого не будет дома
TTITLE13=Гарик Кричевский - Не брани
TTITLE14=Сергей Ноябрьский - Люблю и обожаю
TTITLE15=Сибирь - Клен осыпал листья
TTITLE16=Штар - Алое сердце
TTITLE17=Алексей Степин - Настя
TTITLE18=Гера Грач и Бумер - Она
TTITLE19=Виктор Королев - Красивые слова
TTITLE20=Кабриолет - Застывшая слеза
EXTD=
EXTT0=
EXTT1=
EXTT2=
EXTT3=
EXTT4=
EXTT5=
EXTT6=
EXTT7=
EXTT8=
EXTT9=
EXTT10=
EXTT11=
EXTT12=
EXTT13=
EXTT14=
EXTT15=
EXTT16=
EXTT17=
EXTT18=
EXTT19=
EXTT20=
PLAYORDER=
